<svg width="374" height="38" viewBox="0 0 374 38" fill="none" xmlns="http://www.w3.org/2000/svg">
<path d="M97.2533 1C96.8001 1 96.4326 1.36745 96.4326 1.82072V8.38645C96.4326 8.83971 96.8001 9.20716 97.2533 9.20716H111.616C112.069 9.20716 112.437 9.57461 112.437 10.0279V37.1115C112.437 37.5648 112.804 37.9322 113.257 37.9322H119.823C120.276 37.9322 120.644 37.5648 120.644 37.1115V10.0279C120.644 9.57461 121.011 9.20716 121.464 9.20716H135.827C136.28 9.20716 136.648 8.83971 136.648 8.38645V1.82072C136.648 1.36745 136.28 1 135.827 1H97.2533Z" fill="#0F1418"/>
<path d="M48.4209 1.82072C48.4209 1.36745 48.7883 1 49.2416 1H87.8153C88.2685 1 88.636 1.36745 88.636 1.82072V8.38644C88.636 8.83971 88.2685 9.20716 87.8153 9.20716H57.4488C56.9955 9.20716 56.6281 9.57461 56.6281 10.0279V19.0558C56.6281 19.509 56.9955 19.8765 57.4488 19.8765H87.8153C88.2685 19.8765 88.636 20.2439 88.636 20.6972V27.2629C88.636 27.7162 88.2685 28.0836 87.8153 28.0836H57.4488C56.9955 28.0836 56.6281 28.4511 56.6281 28.9043V37.1115C56.6281 37.5648 56.2606 37.9322 55.8073 37.9322H49.2416C48.7883 37.9322 48.4209 37.5648 48.4209 37.1115V1.82072Z" fill="#0F1418"/>
<path d="M8.91347 13.5293C8.65745 13.2627 8.20716 13.444 8.20716 13.8136V37.1205C8.20716 37.5738 7.83971 37.9413 7.38644 37.9413H0.820716C0.367447 37.9413 0 37.5738 0 37.1205V1.82974C0 1.37647 0.367447 1.00903 0.820716 1.00903H8.19572C8.20204 1.00903 8.20716 1.01415 8.20716 1.02046C8.20716 1.03065 8.21948 1.03576 8.22668 1.02855L8.24153 1.01371C8.2495 1.00573 8.26247 1.00587 8.27028 1.014L31.712 25.4202C31.968 25.6867 32.4183 25.5055 32.4183 25.1359V1.82974C32.4183 1.37647 32.7857 1.00903 33.239 1.00903H39.8047C40.258 1.00903 40.6254 1.37647 40.6254 1.82974V37.1205C40.6254 37.5738 40.258 37.9413 39.8047 37.9413H32.4295C32.4233 37.9413 32.4183 37.9362 32.4183 37.9301C32.4183 37.9201 32.4062 37.9151 32.3992 37.9221L32.3845 37.9368C32.3766 37.9447 32.3639 37.9446 32.3562 37.9366L8.91347 13.5293Z" fill="#0F1418"/>
<path fill-rule="evenodd" clip-rule="evenodd" d="M154.069 1C154.288 1 154.498 1.08753 154.653 1.24312L168.959 15.6844C171.016 17.7609 171.019 21.1059 168.966 23.1862L154.653 37.688C154.499 37.8443 154.288 37.9322 154.069 37.9322H143.791C143.426 37.9322 143.243 37.4915 143.5 37.2326L160.615 20.0115C160.934 19.691 160.933 19.1733 160.614 18.8533L143.503 1.70017C143.245 1.44151 143.428 1 143.794 1H154.069ZM189.311 1C189.092 1 188.882 1.08753 188.728 1.24312L174.422 15.6844C172.365 17.7609 172.362 21.1059 174.415 23.1862L188.728 37.688C188.882 37.8443 189.093 37.9322 189.312 37.9322H199.59C199.955 37.9322 200.138 37.4915 199.881 37.2326L182.765 20.0115C182.447 19.691 182.447 19.1733 182.767 18.8533L199.878 1.70017C200.136 1.44151 199.953 1 199.587 1H189.311Z" fill="url(#paint0_linear_1333_6043)"/>
<path d="M224.375 7.25V34.2188H221.688V7.25H224.375ZM251.344 22.7656H254.344C254.188 24.2031 253.776 25.4896 253.109 26.625C252.443 27.7604 251.5 28.6615 250.281 29.3281C249.062 29.9844 247.542 30.3125 245.719 30.3125C244.385 30.3125 243.172 30.0625 242.078 29.5625C240.995 29.0625 240.062 28.3542 239.281 27.4375C238.5 26.5104 237.896 25.401 237.469 24.1094C237.052 22.8073 236.844 21.3594 236.844 19.7656V17.5C236.844 15.9062 237.052 14.4635 237.469 13.1719C237.896 11.8698 238.505 10.7552 239.297 9.82812C240.099 8.90104 241.062 8.1875 242.188 7.6875C243.312 7.1875 244.578 6.9375 245.984 6.9375C247.703 6.9375 249.156 7.26042 250.344 7.90625C251.531 8.55208 252.453 9.44792 253.109 10.5938C253.776 11.7292 254.188 13.0469 254.344 14.5469H251.344C251.198 13.4844 250.927 12.5729 250.531 11.8125C250.135 11.0417 249.573 10.4479 248.844 10.0312C248.115 9.61458 247.161 9.40625 245.984 9.40625C244.974 9.40625 244.083 9.59896 243.312 9.98438C242.552 10.3698 241.911 10.9167 241.391 11.625C240.88 12.3333 240.495 13.1823 240.234 14.1719C239.974 15.1615 239.844 16.2604 239.844 17.4688V19.7656C239.844 20.8802 239.958 21.9271 240.188 22.9062C240.427 23.8854 240.786 24.7448 241.266 25.4844C241.745 26.224 242.354 26.8073 243.094 27.2344C243.833 27.651 244.708 27.8594 245.719 27.8594C247 27.8594 248.021 27.6562 248.781 27.25C249.542 26.8438 250.115 26.2604 250.5 25.5C250.896 24.7396 251.177 23.8281 251.344 22.7656ZM257.25 21.7344V21.375C257.25 20.1562 257.427 19.026 257.781 17.9844C258.135 16.9323 258.646 16.0208 259.312 15.25C259.979 14.4688 260.786 13.8646 261.734 13.4375C262.682 13 263.745 12.7812 264.922 12.7812C266.109 12.7812 267.177 13 268.125 13.4375C269.083 13.8646 269.896 14.4688 270.562 15.25C271.24 16.0208 271.755 16.9323 272.109 17.9844C272.464 19.026 272.641 20.1562 272.641 21.375V21.7344C272.641 22.9531 272.464 24.0833 272.109 25.125C271.755 26.1667 271.24 27.0781 270.562 27.8594C269.896 28.6302 269.089 29.2344 268.141 29.6719C267.203 30.099 266.141 30.3125 264.953 30.3125C263.766 30.3125 262.698 30.099 261.75 29.6719C260.802 29.2344 259.99 28.6302 259.312 27.8594C258.646 27.0781 258.135 26.1667 257.781 25.125C257.427 24.0833 257.25 22.9531 257.25 21.7344ZM260.141 21.375V21.7344C260.141 22.5781 260.24 23.375 260.438 24.125C260.635 24.8646 260.932 25.5208 261.328 26.0938C261.734 26.6667 262.24 27.1198 262.844 27.4531C263.448 27.776 264.151 27.9375 264.953 27.9375C265.745 27.9375 266.438 27.776 267.031 27.4531C267.635 27.1198 268.135 26.6667 268.531 26.0938C268.927 25.5208 269.224 24.8646 269.422 24.125C269.63 23.375 269.734 22.5781 269.734 21.7344V21.375C269.734 20.5417 269.63 19.7552 269.422 19.0156C269.224 18.2656 268.922 17.6042 268.516 17.0312C268.12 16.4479 267.62 15.9896 267.016 15.6562C266.422 15.3229 265.724 15.1562 264.922 15.1562C264.13 15.1562 263.432 15.3229 262.828 15.6562C262.234 15.9896 261.734 16.4479 261.328 17.0312C260.932 17.6042 260.635 18.2656 260.438 19.0156C260.24 19.7552 260.141 20.5417 260.141 21.375ZM279.156 16.7031V30H276.266V13.0938H279L279.156 16.7031ZM278.469 20.9062L277.266 20.8594C277.276 19.7031 277.448 18.6354 277.781 17.6562C278.115 16.6667 278.583 15.8073 279.188 15.0781C279.792 14.349 280.51 13.7865 281.344 13.3906C282.188 12.9844 283.12 12.7812 284.141 12.7812C284.974 12.7812 285.724 12.8958 286.391 13.125C287.057 13.3438 287.625 13.6979 288.094 14.1875C288.573 14.6771 288.938 15.3125 289.188 16.0938C289.438 16.8646 289.562 17.8073 289.562 18.9219V30H286.656V18.8906C286.656 18.0052 286.526 17.2969 286.266 16.7656C286.005 16.224 285.625 15.8333 285.125 15.5938C284.625 15.3438 284.01 15.2188 283.281 15.2188C282.562 15.2188 281.906 15.3698 281.312 15.6719C280.729 15.974 280.224 16.3906 279.797 16.9219C279.38 17.4531 279.052 18.0625 278.812 18.75C278.583 19.4271 278.469 20.1458 278.469 20.9062ZM301.031 13.0938V15.3125H291.891V13.0938H301.031ZM294.984 8.98438H297.875V25.8125C297.875 26.3854 297.964 26.8177 298.141 27.1094C298.318 27.401 298.547 27.5938 298.828 27.6875C299.109 27.7812 299.411 27.8281 299.734 27.8281C299.974 27.8281 300.224 27.8073 300.484 27.7656C300.755 27.7135 300.958 27.6719 301.094 27.6406L301.109 30C300.88 30.0729 300.578 30.1406 300.203 30.2031C299.839 30.276 299.396 30.3125 298.875 30.3125C298.167 30.3125 297.516 30.1719 296.922 29.8906C296.328 29.6094 295.854 29.1406 295.5 28.4844C295.156 27.8177 294.984 26.9219 294.984 25.7969V8.98438ZM307.312 15.75V30H304.422V13.0938H307.234L307.312 15.75ZM312.594 13L312.578 15.6875C312.339 15.6354 312.109 15.6042 311.891 15.5938C311.682 15.5729 311.443 15.5625 311.172 15.5625C310.505 15.5625 309.917 15.6667 309.406 15.875C308.896 16.0833 308.464 16.375 308.109 16.75C307.755 17.125 307.474 17.5729 307.266 18.0938C307.068 18.6042 306.938 19.1667 306.875 19.7812L306.062 20.25C306.062 19.2292 306.161 18.2708 306.359 17.375C306.568 16.4792 306.885 15.6875 307.312 15C307.74 14.3021 308.281 13.7604 308.938 13.375C309.604 12.9792 310.396 12.7812 311.312 12.7812C311.521 12.7812 311.76 12.8073 312.031 12.8594C312.302 12.901 312.49 12.9479 312.594 13ZM324.609 27.1094V18.4062C324.609 17.7396 324.474 17.1615 324.203 16.6719C323.943 16.1719 323.547 15.7865 323.016 15.5156C322.484 15.2448 321.828 15.1094 321.047 15.1094C320.318 15.1094 319.677 15.2344 319.125 15.4844C318.583 15.7344 318.156 16.0625 317.844 16.4688C317.542 16.875 317.391 17.3125 317.391 17.7812H314.5C314.5 17.1771 314.656 16.5781 314.969 15.9844C315.281 15.3906 315.729 14.8542 316.312 14.375C316.906 13.8854 317.615 13.5 318.438 13.2188C319.271 12.9271 320.198 12.7812 321.219 12.7812C322.448 12.7812 323.531 12.9896 324.469 13.4062C325.417 13.8229 326.156 14.4531 326.688 15.2969C327.229 16.1302 327.5 17.1771 327.5 18.4375V26.3125C327.5 26.875 327.547 27.474 327.641 28.1094C327.745 28.7448 327.896 29.2917 328.094 29.75V30H325.078C324.932 29.6667 324.818 29.224 324.734 28.6719C324.651 28.1094 324.609 27.5885 324.609 27.1094ZM325.109 19.75L325.141 21.7812H322.219C321.396 21.7812 320.661 21.849 320.016 21.9844C319.37 22.1094 318.828 22.3021 318.391 22.5625C317.953 22.8229 317.62 23.151 317.391 23.5469C317.161 23.9323 317.047 24.3854 317.047 24.9062C317.047 25.4375 317.167 25.9219 317.406 26.3594C317.646 26.7969 318.005 27.1458 318.484 27.4062C318.974 27.6562 319.573 27.7812 320.281 27.7812C321.167 27.7812 321.948 27.5938 322.625 27.2188C323.302 26.8438 323.839 26.3854 324.234 25.8438C324.641 25.3021 324.859 24.776 324.891 24.2656L326.125 25.6562C326.052 26.0938 325.854 26.5781 325.531 27.1094C325.208 27.6406 324.776 28.151 324.234 28.6406C323.703 29.1198 323.068 29.5208 322.328 29.8438C321.599 30.1562 320.776 30.3125 319.859 30.3125C318.714 30.3125 317.708 30.0885 316.844 29.6406C315.99 29.1927 315.323 28.5938 314.844 27.8438C314.375 27.0833 314.141 26.2344 314.141 25.2969C314.141 24.3906 314.318 23.5938 314.672 22.9062C315.026 22.2083 315.536 21.6302 316.203 21.1719C316.87 20.7031 317.672 20.349 318.609 20.1094C319.547 19.8698 320.594 19.75 321.75 19.75H325.109ZM338.812 27.9375C339.5 27.9375 340.135 27.7969 340.719 27.5156C341.302 27.2344 341.781 26.849 342.156 26.3594C342.531 25.8594 342.745 25.2917 342.797 24.6562H345.547C345.495 25.6562 345.156 26.5885 344.531 27.4531C343.917 28.3073 343.109 29 342.109 29.5312C341.109 30.0521 340.01 30.3125 338.812 30.3125C337.542 30.3125 336.432 30.0885 335.484 29.6406C334.547 29.1927 333.766 28.5781 333.141 27.7969C332.526 27.0156 332.062 26.1198 331.75 25.1094C331.448 24.0885 331.297 23.0104 331.297 21.875V21.2188C331.297 20.0833 331.448 19.0104 331.75 18C332.062 16.9792 332.526 16.0781 333.141 15.2969C333.766 14.5156 334.547 13.901 335.484 13.4531C336.432 13.0052 337.542 12.7812 338.812 12.7812C340.135 12.7812 341.292 13.0521 342.281 13.5938C343.271 14.125 344.047 14.8542 344.609 15.7812C345.182 16.6979 345.495 17.7396 345.547 18.9062H342.797C342.745 18.2083 342.547 17.5781 342.203 17.0156C341.87 16.4531 341.411 16.0052 340.828 15.6719C340.255 15.3281 339.583 15.1562 338.812 15.1562C337.927 15.1562 337.182 15.3333 336.578 15.6875C335.984 16.0312 335.51 16.5 335.156 17.0938C334.812 17.6771 334.562 18.3281 334.406 19.0469C334.26 19.7552 334.188 20.4792 334.188 21.2188V21.875C334.188 22.6146 334.26 23.3438 334.406 24.0625C334.552 24.7812 334.797 25.4323 335.141 26.0156C335.495 26.599 335.969 27.0677 336.562 27.4219C337.167 27.7656 337.917 27.9375 338.812 27.9375ZM355.875 13.0938V15.3125H346.734V13.0938H355.875ZM349.828 8.98438H352.719V25.8125C352.719 26.3854 352.807 26.8177 352.984 27.1094C353.161 27.401 353.391 27.5938 353.672 27.6875C353.953 27.7812 354.255 27.8281 354.578 27.8281C354.818 27.8281 355.068 27.8073 355.328 27.7656C355.599 27.7135 355.802 27.6719 355.938 27.6406L355.953 30C355.724 30.0729 355.422 30.1406 355.047 30.2031C354.682 30.276 354.24 30.3125 353.719 30.3125C353.01 30.3125 352.359 30.1719 351.766 29.8906C351.172 29.6094 350.698 29.1406 350.344 28.4844C350 27.8177 349.828 26.9219 349.828 25.7969V8.98438ZM369.109 25.5156C369.109 25.099 369.016 24.7135 368.828 24.3594C368.651 23.9948 368.281 23.6667 367.719 23.375C367.167 23.0729 366.333 22.8125 365.219 22.5938C364.281 22.3958 363.432 22.1615 362.672 21.8906C361.922 21.6198 361.281 21.2917 360.75 20.9062C360.229 20.5208 359.828 20.0677 359.547 19.5469C359.266 19.026 359.125 18.4167 359.125 17.7188C359.125 17.0521 359.271 16.4219 359.562 15.8281C359.865 15.2344 360.286 14.7083 360.828 14.25C361.38 13.7917 362.042 13.4323 362.812 13.1719C363.583 12.9115 364.443 12.7812 365.391 12.7812C366.745 12.7812 367.901 13.0208 368.859 13.5C369.818 13.9792 370.552 14.6198 371.062 15.4219C371.573 16.2135 371.828 17.0938 371.828 18.0625H368.938C368.938 17.5938 368.797 17.1406 368.516 16.7031C368.245 16.2552 367.844 15.8854 367.312 15.5938C366.792 15.3021 366.151 15.1562 365.391 15.1562C364.589 15.1562 363.938 15.2812 363.438 15.5312C362.948 15.7708 362.589 16.0781 362.359 16.4531C362.141 16.8281 362.031 17.224 362.031 17.6406C362.031 17.9531 362.083 18.2344 362.188 18.4844C362.302 18.724 362.5 18.9479 362.781 19.1562C363.062 19.3542 363.458 19.5417 363.969 19.7188C364.479 19.8958 365.13 20.0729 365.922 20.25C367.307 20.5625 368.448 20.9375 369.344 21.375C370.24 21.8125 370.906 22.349 371.344 22.9844C371.781 23.6198 372 24.3906 372 25.2969C372 26.0365 371.844 26.7135 371.531 27.3281C371.229 27.9427 370.786 28.474 370.203 28.9219C369.63 29.3594 368.943 29.7031 368.141 29.9531C367.349 30.1927 366.458 30.3125 365.469 30.3125C363.979 30.3125 362.719 30.0469 361.688 29.5156C360.656 28.9844 359.875 28.2969 359.344 27.4531C358.812 26.6094 358.547 25.7188 358.547 24.7812H361.453C361.495 25.5729 361.724 26.2031 362.141 26.6719C362.557 27.1302 363.068 27.4583 363.672 27.6562C364.276 27.8438 364.875 27.9375 365.469 27.9375C366.26 27.9375 366.922 27.8333 367.453 27.625C367.995 27.4167 368.406 27.1302 368.688 26.7656C368.969 26.401 369.109 25.9844 369.109 25.5156Z" fill="black"/>
<defs>
<linearGradient id="paint0_linear_1333_6043" x1="199.846" y1="0.999973" x2="143.216" y2="37.9336" gradientUnits="userSpaceOnUse">
<stop stop-color="#73C9FF"/>
<stop offset="1" stop-color="#3DAEF5"/>
</linearGradient>
</defs>
</svg>
